<?xml version="1.0" encoding="UTF-8" standalone="no"?>
<svg
   xmlns:dc="http://purl.org/dc/elements/1.1/"
   xmlns:cc="http://creativecommons.org/ns#"
   xmlns:rdf="http://www.w3.org/1999/02/22-rdf-syntax-ns#"
   xmlns:svg="http://www.w3.org/2000/svg"
   xmlns="http://www.w3.org/2000/svg"
   xmlns:sodipodi="http://sodipodi.sourceforge.net/DTD/sodipodi-0.dtd"
   xmlns:inkscape="http://www.inkscape.org/namespaces/inkscape"
   viewBox="0 0 48 48"
   version="1.1"
   id="svg21"
   sodipodi:docname="ieee2cvs.svg"
   inkscape:export-filename="/home/felipe/workspace/ieee/images/ieee2cvs128.png"
   inkscape:export-xdpi="300.63159"
   inkscape:export-ydpi="300.63159"
   inkscape:version="0.92.5 (2060ec1f9f, 2020-04-08)">
  <metadata
     id="metadata27">
    <rdf:RDF>
      <cc:Work
         rdf:about="">
        <dc:format>image/svg+xml</dc:format>
        <dc:type
           rdf:resource="http://purl.org/dc/dcmitype/StillImage" />
      </cc:Work>
    </rdf:RDF>
  </metadata>
  <defs
     id="defs25" />
  <sodipodi:namedview
     pagecolor="#ffffff"
     bordercolor="#666666"
     borderopacity="1"
     objecttolerance="10"
     gridtolerance="10"
     guidetolerance="10"
     inkscape:pageopacity="0"
     inkscape:pageshadow="2"
     inkscape:window-width="1867"
     inkscape:window-height="1016"
     id="namedview23"
     showgrid="false"
     inkscape:zoom="13.906433"
     inkscape:cx="14.902387"
     inkscape:cy="24.1709"
     inkscape:window-x="1973"
     inkscape:window-y="1107"
     inkscape:window-maximized="1"
     inkscape:current-layer="svg21" />
  <title
     id="title2" />
  <path
     id="path18"
     style="fill:#17445a;fill-opacity:1"
     d="M 21,31 H 8 A 3,3 0 0 1 5,28 v -6 a 3,3 0 0 1 3,-3 h 13 a 3,3 0 0 1 3,3 v 6 a 3,3 0 0 1 -3,3 z M 8,21 a 1,1 0 0 0 -1,1 v 6 a 1,1 0 0 0 1,1 h 13 a 1,1 0 0 0 1,-1 V 22 A 1,1 0 0 0 21,21 Z M 25,16.215727 H 15 a 1,1 0 0 1 -0.92,-0.62 1,1 0 0 1 0.21,-1.09 l 10,-9.9999995 a 1,1 0 0 1 1.09,-0.21 1,1 0 0 1 0.62,0.92 v 9.9999995 a 1,1 0 0 1 -1,1 z M 10.78,27.29 a 2.49,2.49 0 0 1 -2.55,-2.55 2.48,2.48 0 0 1 2.55,-2.55 2.61,2.61 0 0 1 1.22,0.31 2.32,2.32 0 0 1 0.88,0.85 l -0.84,0.48 a 1.25,1.25 0 0 0 -0.51,-0.51 1.51,1.51 0 0 0 -0.76,-0.19 1.52,1.52 0 0 0 -1.15,0.45 1.75,1.75 0 0 0 0,2.32 1.51,1.51 0 0 0 1.15,0.44 1.61,1.61 0 0 0 0.76,-0.18 1.2,1.2 0 0 0 0.51,-0.51 l 0.84,0.48 A 2.32,2.32 0 0 1 12,27 2.44,2.44 0 0 1 10.78,27.29 Z m 4.37,0 A 2.16,2.16 0 0 1 13.93,27 1.69,1.69 0 0 1 13.23,26.12 l 0.82,-0.48 a 1.12,1.12 0 0 0 1.13,0.74 1,1 0 0 0 0.6,-0.14 0.47,0.47 0 0 0 0.19,-0.37 0.45,0.45 0 0 0 -0.24,-0.41 3.53,3.53 0 0 0 -0.82,-0.31 5.15,5.15 0 0 1 -0.56,-0.19 2.68,2.68 0 0 1 -0.45,-0.27 1.07,1.07 0 0 1 -0.35,-0.41 1.38,1.38 0 0 1 -0.12,-0.59 1.32,1.32 0 0 1 0.47,-1.06 1.76,1.76 0 0 1 1.14,-0.4 1.92,1.92 0 0 1 1.05,0.29 2,2 0 0 1 0.7,0.81 l -0.81,0.47 a 1,1 0 0 0 -0.94,-0.63 0.73,0.73 0 0 0 -0.47,0.14 0.44,0.44 0 0 0 -0.17,0.35 0.45,0.45 0 0 0 0.19,0.38 2.77,2.77 0 0 0 0.74,0.31 l 0.34,0.11 0.31,0.11 a 1.72,1.72 0 0 1 0.31,0.16 1.51,1.51 0 0 1 0.25,0.18 0.93,0.93 0 0 1 0.21,0.25 1.42,1.42 0 0 1 0.13,0.3 1.6,1.6 0 0 1 0.05,0.39 1.31,1.31 0 0 1 -0.49,1.08 2,2 0 0 1 -1.29,0.36 z m 3.48,-0.1 -1.63,-4.9 h 1 l 1.2,3.77 1.19,-3.77 h 1.05 l -1.65,4.9 z M 40,43 h -6.57 a 1,1 0 0 1 0,-2 H 40 a 1,1 0 0 0 1,-1 V 7 A 1,1 0 0 0 40,6 H 25.41 L 16,15.41 V 20 a 1,1 0 0 1 -2,0 v -5 a 1,1 0 0 1 0.29,-0.71 l 10,-10 A 1,1 0 0 1 25,4 h 15 a 3,3 0 0 1 3,3 v 33 a 3,3 0 0 1 -3,3 z m -9.43,0 H 17 A 3,3 0 0 1 14,40 V 30 a 1,1 0 0 1 2,0 v 10 a 1,1 0 0 0 1,1 h 13.57 a 1,1 0 0 1 0,2 z m 1.50191,1.784272 a 1,1 0 0 1 -0.81,-0.42 l -5,-7 a 1,1 0 0 1 0.81,-1.58 h 1 v -5 a 1,1 0 0 1 1,-1 h 6 a 1,1 0 0 1 1,1 v 5 h 1 a 1,1 0 0 1 0.81,1.58 l -5,7 a 1,1 0 0 1 -0.81,0.42 z" />
</svg>
